<svg width="113" height="200" viewBox="0 0 113 200" fill="none" xmlns="http://www.w3.org/2000/svg">
<path fill-rule="evenodd" clip-rule="evenodd" d="M0.21582 144.5C6.97595 131.64 -2.88092 92.3715 3.3247 85.4933C9.53032 78.6152 -2.37507 2.5817 3.83055 9.45985L5.90754 11.7619L5.93287 11.79L8.03518 14.1201L8.0605 14.1482L8.08584 14.1763L2.87402 37.8358C2.87402 31.6033 0.189138 19.5202 5.33094 17.8358V14.4149L9.37812 11.79C5.33094 17.8358 2.11525 13.8023 5.90754 14.041L2.87402 11.79C2.89935 9.71251 4.44442 8 6.31877 8L9.37812 4H42.3743L57.3743 0H78.8743L107.716 29.5L135.216 0C136.71 0 142.26 2.51207 142.716 4L187.977 65.5748V199.5H47.2158L0.21582 144.5Z" fill="#8ECAE6"/>
</svg>
